<mxfile host="app.diagrams.net" modified="2024-03-26T17:37:29.997Z" agent="Mozilla/5.0 (Macintosh; Intel Mac OS X 10_15_7) AppleWebKit/537.36 (KHTML, like Gecko) Chrome/119.0.0.0 Safari/537.36" version="24.2.0" etag="oQMyj1fxlN9KLlNHu0y6" type="github">
  <diagram name="第 1 页" id="vBpbbnqoPjy4uzAC3uCz">
    <mxGraphModel>
      <root>
        <mxCell id="0" />
        <mxCell id="1" parent="0" />
      </root>
    </mxGraphModel>
  </diagram>
</mxfile>
